<svg xmlns="http://www.w3.org/2000/svg" width="32" height="32" viewBox="0 0 24 24" fill="#22c55e" stroke="#22c55e" stroke-width="2" stroke-linecap="round" stroke-linejoin="round">
  <path d="M7 21h10"/>
  <path d="M12 21a9 9 0 0 0 9-9H3a9 9 0 0 0 9 9Z"/>
  <path d="M11.38 12a2.4 2.4 0 0 1-.4-4.77 2.4 2.4 0 0 1 3.2-2.77 2.4 2.4 0 0 1 3.47-.63 2.4 2.4 0 0 1 3.37 3.37 2.4 2.4 0 0 1-1.1 3.7 2.51 2.51 0 0 1 .03 1.1"/>
  <path d="M13 12c0-1.1.9-2 2-2s2 .9 2 2"/>
  <path d="M10 13s.8 1.1.8 2.1c0 1.1-.9 2-2 2-1.1 0-2-.9-2-2 0-1.1.8-2.1.8-2.1"/>
  <path d="M8 15h6"/>
</svg>